<svg viewBox="0 0 28 28" fill="none" xmlns="http://www.w3.org/2000/svg">
<path d="M11 9.83325V13.8333" stroke="currentColor" stroke-linecap="round" stroke-linejoin="round"/>
<path d="M12 13.8333H10C9.44772 13.8333 9 14.281 9 14.8333V18.8333C9 19.3855 9.44772 19.8333 10 19.8333H12C12.5523 19.8333 13 19.3855 13 18.8333V14.8333C13 14.281 12.5523 13.8333 12 13.8333Z" stroke="currentColor" stroke-linecap="round" stroke-linejoin="round"/>
<path d="M11 19.8333V21.8333" stroke="currentColor" stroke-linecap="round" stroke-linejoin="round"/>
<path d="M18 6.83325V8.83325" stroke="currentColor" stroke-linecap="round" stroke-linejoin="round"/>
<path d="M19 8.83325H17C16.4477 8.83325 16 9.28097 16 9.83325V15.8333C16 16.3855 16.4477 16.8333 17 16.8333H19C19.5523 16.8333 20 16.3855 20 15.8333V9.83325C20 9.28097 19.5523 8.83325 19 8.83325Z" stroke="currentColor" stroke-linecap="round" stroke-linejoin="round"/>
<path d="M18 16.8333V19.8333" stroke="currentColor" stroke-linecap="round" stroke-linejoin="round"/>
</svg>
