<svg xmlns="http://www.w3.org/2000/svg" viewBox="0 0 28 28" fill="none">
  <rect x="0.25" y="0.25" width="27.5" height="27.5" rx="13.75" stroke="#D9D9D9" stroke-width="0.5"/>
  <path d="M8.5 9.67857C8.5 9.0279 9.0279 8.5 9.67857 8.5H12.0357C12.6864 8.5 13.2143 9.0279 13.2143 9.67857V12.0357C13.2143 12.6864 12.6864 13.2143 12.0357 13.2143H9.67857C9.0279 13.2143 8.5 12.6864 8.5 12.0357V9.67857ZM10.0714 10.0714V11.6429H11.6429V10.0714H10.0714ZM8.5 15.9643C8.5 15.3136 9.0279 14.7857 9.67857 14.7857H12.0357C12.6864 14.7857 13.2143 15.3136 13.2143 15.9643V18.3214C13.2143 18.9721 12.6864 19.5 12.0357 19.5H9.67857C9.0279 19.5 8.5 18.9721 8.5 18.3214V15.9643ZM10.0714 16.3571V17.9286H11.6429V16.3571H10.0714ZM15.9643 8.5H18.3214C18.9721 8.5 19.5 9.0279 19.5 9.67857V12.0357C19.5 12.6864 18.9721 13.2143 18.3214 13.2143H15.9643C15.3136 13.2143 14.7857 12.6864 14.7857 12.0357V9.67857C14.7857 9.0279 15.3136 8.5 15.9643 8.5ZM17.9286 10.0714H16.3571V11.6429H17.9286V10.0714ZM14.7857 15.1786C14.7857 14.9625 14.9625 14.7857 15.1786 14.7857H16.75C16.9661 14.7857 17.1429 14.9625 17.1429 15.1786C17.1429 15.3946 17.3196 15.5714 17.5357 15.5714H18.3214C18.5375 15.5714 18.7143 15.3946 18.7143 15.1786C18.7143 14.9625 18.8911 14.7857 19.1071 14.7857C19.3232 14.7857 19.5 14.9625 19.5 15.1786V17.5357C19.5 17.7518 19.3232 17.9286 19.1071 17.9286H17.5357C17.3196 17.9286 17.1429 17.7518 17.1429 17.5357C17.1429 17.3196 16.9661 17.1429 16.75 17.1429C16.5339 17.1429 16.3571 17.3196 16.3571 17.5357V19.1071C16.3571 19.3232 16.1804 19.5 15.9643 19.5H15.1786C14.9625 19.5 14.7857 19.3232 14.7857 19.1071V15.1786ZM17.5357 19.5C17.4315 19.5 17.3316 19.4586 17.2579 19.3849C17.1842 19.3113 17.1429 19.2113 17.1429 19.1071C17.1429 19.003 17.1842 18.903 17.2579 18.8294C17.3316 18.7557 17.4315 18.7143 17.5357 18.7143C17.6399 18.7143 17.7398 18.7557 17.8135 18.8294C17.8872 18.903 17.9286 19.003 17.9286 19.1071C17.9286 19.2113 17.8872 19.3113 17.8135 19.3849C17.7398 19.4586 17.6399 19.5 17.5357 19.5ZM19.1071 19.5C19.003 19.5 18.903 19.4586 18.8294 19.3849C18.7557 19.3113 18.7143 19.2113 18.7143 19.1071C18.7143 19.003 18.7557 18.903 18.8294 18.8294C18.903 18.7557 19.003 18.7143 19.1071 18.7143C19.2113 18.7143 19.3113 18.7557 19.3849 18.8294C19.4586 18.903 19.5 19.003 19.5 19.1071C19.5 19.2113 19.4586 19.3113 19.3849 19.3849C19.3113 19.4586 19.2113 19.5 19.1071 19.5Z" fill="#D9D9D9"/>
</svg>
