<svg width="28" height="29" viewBox="0 0 28 29" fill="none" xmlns="http://www.w3.org/2000/svg">
<path d="M11.9353 17.9999C11.846 17.6538 11.6656 17.338 11.4129 17.0853C11.1602 16.8326 10.8444 16.6522 10.4983 16.5629L4.36347 14.981C4.2588 14.9513 4.16668 14.8882 4.10108 14.8014C4.03549 14.7146 4 14.6088 4 14.5C4 14.3912 4.03549 14.2854 4.10108 14.1986C4.16668 14.1118 4.2588 14.0487 4.36347 14.019L10.4983 12.4361C10.8442 12.3469 11.16 12.1666 11.4127 11.9141C11.6654 11.6616 11.8458 11.346 11.9353 11.0001L13.5172 4.86524C13.5466 4.76016 13.6096 4.66759 13.6965 4.60164C13.7835 4.5357 13.8896 4.5 13.9987 4.5C14.1078 4.5 14.2139 4.5357 14.3009 4.60164C14.3878 4.66759 14.4508 4.76016 14.4802 4.86524L16.0612 11.0001C16.1504 11.3461 16.3308 11.662 16.5835 11.9147C16.8362 12.1674 17.1521 12.3478 17.4981 12.4371L23.633 14.018C23.7385 14.0471 23.8315 14.11 23.8978 14.1971C23.9641 14.2841 24 14.3906 24 14.5C24 14.6094 23.9641 14.7158 23.8978 14.8029C23.8315 14.89 23.7385 14.9529 23.633 14.982L17.4981 16.5629C17.1521 16.6522 16.8362 16.8326 16.5835 17.0853C16.3308 17.338 16.1504 17.6538 16.0612 17.9999L14.4792 24.1348C14.4498 24.2398 14.3868 24.3324 14.2999 24.3984C14.213 24.4643 14.1068 24.5 13.9977 24.5C13.8886 24.5 13.7825 24.4643 13.6955 24.3984C13.6086 24.3324 13.5456 24.2398 13.5162 24.1348L11.9353 17.9999Z" stroke="#D9D9D9" stroke-linecap="round" stroke-linejoin="round"/>
</svg>
