<svg xmlns="http://www.w3.org/2000/svg" viewBox="0 0 28 28" fill="none">
  <rect x="0.25" y="0.25" width="27.5" height="27.5" rx="13.75" stroke="#D9D9D9" stroke-width="0.5"/>
  <path d="M9.86364 9C9.11151 9 8.5 9.64063 8.5 10.4286V17.5714C8.5 18.3594 9.11151 19 9.86364 19H18.0455C18.7976 19 19.4091 18.3594 19.4091 17.5714V12.5714C19.4091 11.7835 18.7976 11.1429 18.0455 11.1429H10.2045C10.017 11.1429 9.86364 10.9821 9.86364 10.7857C9.86364 10.5893 10.017 10.4286 10.2045 10.4286H18.0455C18.4226 10.4286 18.7273 10.1094 18.7273 9.71429C18.7273 9.3192 18.4226 9 18.0455 9H9.86364ZM17.3636 14.3571C17.5445 14.3571 17.7179 14.4324 17.8458 14.5664C17.9736 14.7003 18.0455 14.882 18.0455 15.0714C18.0455 15.2609 17.9736 15.4426 17.8458 15.5765C17.7179 15.7105 17.5445 15.7857 17.3636 15.7857C17.1828 15.7857 17.0094 15.7105 16.8815 15.5765C16.7537 15.4426 16.6818 15.2609 16.6818 15.0714C16.6818 14.882 16.7537 14.7003 16.8815 14.5664C17.0094 14.4324 17.1828 14.3571 17.3636 14.3571Z" fill="#D9D9D9"/>
</svg>
