<svg width="14" height="17" viewBox="0 0 14 17" fill="none" xmlns="http://www.w3.org/2000/svg">
<g clip-path="url(#clip0_2402_6481)">
<path d="M13.7063 5.20469C14.0969 4.81406 14.0969 4.17969 13.7063 3.78906L10.7063 0.789062C10.3156 0.398438 9.68125 0.398438 9.29062 0.789062C8.9 1.17969 8.9 1.81406 9.29062 2.20469L10.5844 3.49844H1C0.446875 3.49844 0 3.94531 0 4.49844C0 5.05156 0.446875 5.49844 1 5.49844H10.5844L9.29062 6.79219C8.9 7.18281 8.9 7.81719 9.29062 8.20781C9.68125 8.59844 10.3156 8.59844 10.7063 8.20781L13.7063 5.20781V5.20469ZM3.29063 16.2047C3.68125 16.5953 4.31563 16.5953 4.70625 16.2047C5.09688 15.8141 5.09688 15.1797 4.70625 14.7891L3.41563 13.4984H13C13.5531 13.4984 14 13.0516 14 12.4984C14 11.9453 13.5531 11.4984 13 11.4984H3.41563L4.70937 10.2047C5.1 9.81406 5.1 9.17969 4.70937 8.78906C4.31875 8.39844 3.68438 8.39844 3.29375 8.78906L0.29375 11.7891C-0.096875 12.1797 -0.096875 12.8141 0.29375 13.2047L3.29375 16.2047H3.29063Z" fill="currentColor"/>
</g>
<defs>
<clipPath id="clip0_2402_6481">
<rect width="14" height="16" fill="white" transform="translate(0 0.5)"/>
</clipPath>
</defs>
</svg>
