<svg viewBox="0 0 41 41" fill="none" xmlns="http://www.w3.org/2000/svg">
<path d="M33.9331 34.0285C35.8754 32.0862 37.7125 30.774 38.0362 31.0976C38.36 31.4215 37.0478 33.2586 35.1054 35.2009C33.1629 37.1432 31.326 38.4555 31.0022 38.1318C30.6785 37.808 31.9907 35.971 33.9331 34.0285Z" fill="currentColor"/>
<path d="M5.79583 5.895C7.73822 3.95261 9.57528 2.64044 9.899 2.96417C10.2227 3.28789 8.91056 5.12495 6.96817 7.06734C5.02578 9.00973 3.18872 10.3219 2.86498 9.99819C2.54127 9.67445 3.85344 7.83739 5.79583 5.895Z" fill="currentColor"/>
<path d="M14.3444 31.9306C17.5007 28.7742 20.4532 26.6091 20.9388 27.0947C21.4243 27.5802 19.2592 30.5327 16.1029 33.6891C12.9465 36.8455 9.99408 39.0106 9.50848 38.5251C9.02289 38.0393 11.188 35.087 14.3444 31.9306Z" fill="currentColor"/>
<path d="M31.8312 14.4439C34.9876 11.2875 37.9399 9.12243 38.4255 9.60803C38.9111 10.0936 36.7461 13.046 33.5897 16.2024C30.4334 19.3589 27.4809 21.5238 26.9953 21.0383C26.5097 20.5527 28.6749 17.6004 31.8312 14.4439Z" fill="currentColor"/>
<path d="M7.3102 24.8962C10.4666 21.7399 13.419 19.5747 13.9046 20.0603C14.3902 20.5459 12.2251 23.4984 9.06869 26.6547C5.91231 29.8111 2.9599 31.9761 2.4743 31.4905C1.98871 31.0049 4.15381 28.0526 7.3102 24.8962Z" fill="currentColor"/>
<path d="M24.7969 7.40955C27.9533 4.25316 30.9058 2.08807 31.3913 2.57367C31.8769 3.05925 29.7118 6.01168 26.5556 9.16805C23.3992 12.3244 20.4467 14.4895 19.9611 14.0039C19.4755 13.5183 21.6405 10.5659 24.7969 7.40955Z" fill="currentColor"/>
<path d="M9.45563 29.9541C12.3153 27.0946 14.9834 25.1263 15.415 25.5579C15.8466 25.9895 13.8784 28.6576 11.0187 31.5173C8.15912 34.3769 5.49102 36.3452 5.05937 35.9136C4.62773 35.482 6.59601 32.8138 9.45563 29.9541Z" fill="currentColor"/>
<path d="M29.5362 9.9007C32.3957 7.04108 35.0638 5.07279 35.4956 5.50444C35.9272 5.93609 33.9589 8.60419 31.0992 11.4638C28.2397 14.3235 25.5715 16.2917 25.1399 15.8601C24.7083 15.4284 26.6765 12.7603 29.5362 9.9007Z" fill="currentColor"/>
<path d="M30.5626 30.5605C35.8772 25.2459 40.5353 21.2875 40.967 21.7191C41.3986 22.1508 37.4402 26.8089 32.1256 32.1236C26.8109 37.4382 22.1528 41.3966 21.7212 40.9649C21.2895 40.5333 25.2479 35.8752 30.5626 30.5605Z" fill="currentColor"/>
<path d="M8.87357 8.87357C14.1882 3.55897 18.8464 -0.399441 19.278 0.0322C19.7096 0.463843 15.7513 5.12209 10.4367 10.4367C5.12209 15.7513 0.463843 19.7096 0.0322 19.278C-0.399441 18.8464 3.55897 14.1882 8.87357 8.87357Z" fill="currentColor"/>
<path d="M26.685 26.8192C33.7978 19.7063 40.0013 14.3777 40.5408 14.9173C41.0804 15.4568 35.7518 21.6603 28.639 28.773C21.5263 35.8858 15.3228 41.2144 14.7832 40.675C14.2437 40.1354 19.5723 33.9319 26.685 26.8192Z" fill="currentColor"/>
<path d="M12.2276 12.3571C19.3403 5.24432 25.5438 -0.0843374 26.0834 0.455216C26.6229 0.994769 21.2943 7.19821 14.1815 14.311C7.06869 21.4238 0.865252 26.7524 0.3257 26.2128C-0.213853 25.6733 5.1148 19.4698 12.2276 12.3571Z" fill="currentColor"/>
</svg>
